<svg width="28" height="34" viewBox="0 0 28 34" fill="none" xmlns="http://www.w3.org/2000/svg">
<path d="M14.4559 10.2052C15.7579 10.2052 18.2349 8.40111 20.7899 8.67034C23.1854 8.74558 25.4879 9.99521 26.8626 11.9661C24.6836 13.311 23.31 15.7406 23.277 18.3083C23.2801 21.2091 25.0574 23.8979 27.7187 25.0279C27.2015 26.7149 26.4217 28.3091 25.4084 29.7516C24.0476 31.7952 22.6208 33.7917 20.3562 33.8286C18.1557 33.8796 17.4162 32.5286 14.8923 32.5286C12.3448 32.5286 11.5566 33.7917 9.44617 33.8796C7.28947 33.9598 5.64123 31.6985 4.23092 29.674C1.41212 25.5398 -0.782827 18.023 2.15981 12.9084C3.52873 10.4389 6.1518 8.83292 8.9655 8.74166C11.1241 8.69707 13.1288 10.2052 14.4559 10.2052Z" fill="#090909"/>
<path d="M20.8165 0.619629C20.9638 2.55071 20.3555 4.46337 19.1207 5.95145C17.9382 7.42798 16.083 8.30856 14.1959 8.28905C14.0755 6.43179 14.7123 4.55277 15.9361 3.15463C17.1875 1.72365 18.93 0.818537 20.8165 0.619629Z" fill="#090909"/>
</svg>
