<svg width="16" height="16" viewBox="0 0 16 16" fill="none" xmlns="http://www.w3.org/2000/svg">
<path fill-rule="evenodd" clip-rule="evenodd" d="M1 8.00019C1.00024 4.66068 3.35944 1.78639 6.63483 1.1351C9.91021 0.483818 13.1895 2.23693 14.4673 5.32231C15.7451 8.40769 14.6655 11.966 11.8887 13.8212C9.11186 15.6764 5.41127 15.3117 3.05 12.9502C1.73728 11.6373 0.999866 9.85675 1 8.00019Z" stroke="#979797" stroke-width="1.5" stroke-linecap="round" stroke-linejoin="round"/>
<path d="M4.84477 10.0938C4.55182 10.3867 4.55173 10.8615 4.84457 11.1545C5.13741 11.4474 5.61228 11.4475 5.90523 11.1547L4.84477 10.0938ZM8.53023 8.5307C8.82318 8.23786 8.82327 7.76299 8.53043 7.47004C8.23759 7.17709 7.76272 7.177 7.46977 7.46984L8.53023 8.5307ZM7.46947 7.47014C7.17669 7.76314 7.17687 8.23802 7.46987 8.5308C7.76288 8.82358 8.23775 8.8234 8.53053 8.5304L7.46947 7.47014ZM11.1545 5.9044C11.4473 5.61139 11.4471 5.13652 11.1541 4.84374C10.8611 4.55095 10.3862 4.55113 10.0935 4.84414L11.1545 5.9044ZM8.53023 7.46984C8.23728 7.177 7.76241 7.17709 7.46957 7.47004C7.17673 7.76299 7.17682 8.23786 7.46977 8.5307L8.53023 7.46984ZM10.0948 11.1547C10.3877 11.4475 10.8626 11.4474 11.1554 11.1545C11.4483 10.8615 11.4482 10.3867 11.1552 10.0938L10.0948 11.1547ZM7.46957 8.5305C7.76241 8.82345 8.23728 8.82354 8.53023 8.5307C8.82318 8.23786 8.82327 7.76299 8.53043 7.47004L7.46957 8.5305ZM5.90543 4.84404C5.61259 4.55109 5.13772 4.551 4.84477 4.84384C4.55182 5.13667 4.55173 5.61155 4.84457 5.9045L5.90543 4.84404ZM5.90523 11.1547L8.53023 8.5307L7.46977 7.46984L4.84477 10.0938L5.90523 11.1547ZM8.53053 8.5304L11.1545 5.9044L10.0935 4.84414L7.46947 7.47014L8.53053 8.5304ZM7.46977 8.5307L10.0948 11.1547L11.1552 10.0938L8.53023 7.46984L7.46977 8.5307ZM8.53043 7.47004L5.90543 4.84404L4.84457 5.9045L7.46957 8.5305L8.53043 7.47004Z" fill="#979797"/>
</svg>
