<svg width="257" height="45" viewBox="0 0 257 45" fill="none" xmlns="http://www.w3.org/2000/svg">
<path d="M75.3859 24.6522C75.3859 32.3011 70.0906 36.7467 63.8144 36.7467C56.6232 36.7467 51.001 31.059 51.001 24.1292C51.001 17.1994 56.6885 11.4463 63.6183 11.4463C66.6257 11.4463 69.8945 12.8192 72.2479 14.9766C72.444 15.1073 72.444 15.3688 72.3134 15.565L70.0906 18.8337C69.9598 19.0953 69.6329 19.0953 69.3715 18.8992C67.5409 17.2647 65.5142 16.3495 63.4877 16.3495C59.6959 16.3495 55.9041 19.5528 55.9041 24.0637C55.9041 28.3132 59.1729 31.7781 63.9452 31.7781C67.214 31.7781 69.5676 30.2091 70.0251 27.5941C70.0906 27.3325 69.829 27.0711 69.5676 27.0711H64.2721C64.0107 27.0711 63.8144 26.875 63.8144 26.6134V23.0177C63.8144 22.7563 64.0107 22.5602 64.2721 22.5602H74.7976C75.0591 22.5602 75.2552 22.7563 75.2552 22.9524C75.3206 23.6062 75.3859 24.1292 75.3859 24.6522Z" fill="white"/>
<path fill-rule="evenodd" clip-rule="evenodd" d="M83.1665 29.0972H94.6073C94.934 29.0972 95.2609 28.8358 95.3264 28.4436C95.5225 27.8551 95.5878 27.2015 95.5878 26.4822C95.5878 22.0368 92.4498 17.5259 87.0236 17.5259C81.8589 17.5259 77.7402 21.5791 77.7402 27.2015C77.7402 32.7584 81.7936 36.8769 87.0236 36.8769C88.9849 36.8769 91.5346 36.2886 93.6919 34.3274C94.0843 34.0658 94.0843 33.5428 93.7574 33.2159L91.6654 31.1239C91.4038 30.8625 91.0116 30.797 90.6847 31.0586C89.3118 32.1699 88.0696 32.366 87.1544 32.366C85.2585 32.366 83.624 31.32 82.8396 29.6857C82.7088 29.4241 82.8396 29.0972 83.1665 29.0972ZM90.4888 25.4362H83.036C82.7744 25.4362 82.5783 25.1748 82.7091 24.9132C83.4937 23.1481 85.128 22.1021 87.0239 22.1021C88.9851 22.1021 90.2927 23.2135 90.881 24.9132C90.9463 25.1748 90.7502 25.4362 90.4888 25.4362Z" fill="white"/>
<path d="M99.9023 30.2103V23.4766C99.9023 23.0189 99.5754 22.692 99.1177 22.692H98.2678C97.8103 22.692 97.4834 22.3651 97.4834 21.9076V19.0963C97.4834 19.0963 97.4834 18.8349 97.614 18.7041C97.8103 18.508 98.0064 18.508 98.0064 18.508C99.3138 18.508 100.164 17.6581 100.164 16.2199V15.37C100.164 14.9123 100.491 14.5854 100.948 14.5854H103.759C104.217 14.5854 104.544 14.9123 104.544 15.37V17.462C104.544 17.9197 104.871 18.2466 105.328 18.2466H107.42C107.878 18.2466 108.205 18.5733 108.205 19.031V21.9729C108.205 22.4306 107.878 22.7575 107.42 22.7575H105.328C104.871 22.7575 104.544 23.0842 104.544 23.5419V30.2756C104.544 31.4524 104.936 32.1715 106.113 32.1715C106.505 32.1715 107.028 32.106 107.617 31.9754C107.943 31.9099 108.205 32.106 108.205 32.4329V35.5056C108.205 35.8325 107.943 36.1594 107.617 36.2902C106.636 36.4863 105.394 36.6824 104.544 36.6824C101.471 36.5516 99.9023 34.3943 99.9023 30.2103Z" fill="white"/>
<path d="M141.743 30.2103V23.4766C141.743 23.0189 141.416 22.692 140.959 22.692H140.109C139.651 22.692 139.324 22.3651 139.324 21.9076V19.0963C139.324 19.0963 139.324 18.8349 139.455 18.7041C139.651 18.508 139.847 18.508 139.847 18.508C141.155 18.508 142.005 17.6581 142.005 16.2199V15.37C142.005 14.9123 142.331 14.5854 142.789 14.5854H145.6C146.058 14.5854 146.385 14.9123 146.385 15.37V17.462C146.385 17.9197 146.712 18.2466 147.169 18.2466H149.261C149.719 18.2466 150.046 18.5733 150.046 19.031V21.9729C150.046 22.4306 149.719 22.7575 149.261 22.7575H147.169C146.712 22.7575 146.385 23.0842 146.385 23.5419V30.2756C146.385 31.4524 146.777 32.1715 147.954 32.1715C148.346 32.1715 148.869 32.106 149.457 31.9754C149.784 31.9099 150.046 32.106 150.046 32.4329V35.5056C150.046 35.8325 149.784 36.1594 149.457 36.2902C148.477 36.4863 147.235 36.6824 146.385 36.6824C143.312 36.5516 141.743 34.3943 141.743 30.2103Z" fill="white"/>
<path d="M118.534 17.2646V21.2525C118.534 21.5139 118.73 21.7102 118.992 21.7102H126.118C126.575 21.7102 126.902 22.0371 126.902 22.4946V25.8287C126.902 26.2864 126.575 26.6133 126.118 26.6133H118.992C118.73 26.6133 118.534 26.8094 118.534 27.071V35.5698C118.534 36.0274 118.207 36.3542 117.75 36.3542H114.415C113.958 36.3542 113.631 36.0274 113.631 35.5698V12.6883C113.631 12.2307 113.958 11.9038 114.415 11.9038H127.556C128.013 11.9038 128.34 12.2307 128.34 12.6883V16.0225C128.34 16.4801 128.013 16.8069 127.556 16.8069H118.992C118.73 16.8069 118.534 17.003 118.534 17.2646Z" fill="white"/>
<path fill-rule="evenodd" clip-rule="evenodd" d="M133.832 10.7271C132.394 10.7271 131.217 11.9038 131.217 13.3421C131.217 14.8457 132.394 16.0225 133.832 15.9571C135.27 15.9571 136.447 14.7803 136.447 13.3421C136.447 11.9038 135.27 10.7271 133.832 10.7271ZM135.466 18.1807H132.132C131.805 18.1807 131.478 18.4421 131.478 18.8343V35.6358C131.478 36.0282 131.805 36.2896 132.132 36.2896H135.466C135.858 36.2896 136.12 35.9627 136.12 35.6358V18.8343C136.12 18.4421 135.793 18.1807 135.466 18.1807Z" fill="white"/>
<path d="M154.687 31.7128L157.563 29.6861C157.825 29.49 158.217 29.5553 158.413 29.8169C159.459 31.1898 160.898 31.8434 162.793 31.8434C165.082 31.8434 166.651 30.9282 166.651 29.6208C166.651 27.8555 163.709 26.4173 161.159 25.1752C158.413 23.8023 155.406 22.2986 155.406 18.4415C155.406 14.2574 158.936 11.4463 163.447 11.4463C166.585 11.4463 169.2 12.6231 170.376 15.2381C170.508 15.4996 170.442 15.8918 170.181 16.088L167.566 17.9185C167.304 18.1146 166.912 18.0493 166.651 17.7877C165.866 16.7417 164.689 16.2841 163.513 16.2841C161.682 16.2841 160.309 17.3302 160.309 18.5723C160.309 20.0105 162.14 20.5335 164.951 21.8411C169.004 23.737 171.488 25.7635 171.488 29.5553C171.488 34.0009 167.893 36.812 162.663 36.812C158.936 36.812 156.06 35.3738 154.425 32.628C154.295 32.3011 154.425 31.9089 154.687 31.7128Z" fill="white"/>
<path d="M191.166 26.4817V35.6341C191.166 35.961 190.905 36.2879 190.513 36.2879H187.178C186.851 36.2879 186.525 36.0265 186.525 35.6341V26.4817C186.525 23.3437 185.347 22.2322 182.995 22.2322C180.706 22.2322 179.332 23.8012 179.332 26.4817V35.6341C179.332 35.961 179.071 36.2879 178.679 36.2879H175.344C175.019 36.2879 174.691 36.0265 174.691 35.6341V12.0336C174.691 11.6414 174.953 11.3799 175.344 11.3799H178.679C179.071 11.3799 179.332 11.6414 179.332 12.0336V19.2903C179.332 19.4864 179.594 19.6172 179.726 19.4864C180.968 18.3751 182.601 17.7213 184.562 17.7213C188.029 17.7213 191.166 19.4211 191.166 26.4817Z" fill="white"/>
<path fill-rule="evenodd" clip-rule="evenodd" d="M213.525 35.635V18.8334C213.525 18.4412 213.199 18.1796 212.806 18.1796H209.735C209.407 18.1796 209.145 18.4412 209.08 18.7681L208.95 20.141C207.51 18.4412 205.549 17.5913 203.197 17.5913C198.096 17.5913 194.37 21.9714 194.37 27.2669C194.37 31.9739 197.639 36.8771 203.197 36.8771C205.419 36.8771 207.314 36.0272 208.688 34.589C208.818 34.4582 209.014 34.5236 209.014 34.7197L209.08 35.7003C209.145 36.0272 209.407 36.2887 209.735 36.2887H212.872C213.263 36.2887 213.525 35.9619 213.525 35.635ZM203.981 22.2329C206.529 22.2329 208.884 24.1288 208.884 27.2014C208.884 30.1433 206.727 32.2353 203.981 32.2353C200.974 32.2353 199.013 29.7511 199.013 27.2014C199.013 24.5211 201.169 22.2329 203.981 22.2329Z" fill="white"/>
<path fill-rule="evenodd" clip-rule="evenodd" d="M227.906 36.8771C233.53 36.8771 236.733 31.9739 236.733 27.2669C236.733 21.9714 233.007 17.5913 227.906 17.5913C225.684 17.5913 223.789 18.3757 222.417 19.8794C222.351 20.0102 222.155 19.9449 222.155 19.8141L222.023 18.7681C221.958 18.4412 221.696 18.1796 221.37 18.1796H218.363C217.97 18.1796 217.708 18.5065 217.708 18.8334V42.434C217.708 42.8262 218.035 43.0878 218.363 43.0878H221.566C221.958 43.0878 222.219 42.7609 222.219 42.434V34.8504C222.219 34.6543 222.351 34.589 222.481 34.7197C223.854 36.0926 225.75 36.8771 227.906 36.8771ZM227.123 22.2329C229.933 22.2329 232.092 24.5211 232.092 27.2014C232.092 29.7511 230.195 32.2353 227.123 32.2353C224.312 32.2353 222.219 30.1433 222.219 27.2014C222.219 24.1288 224.573 22.2329 227.123 22.2329Z" fill="white"/>
<path fill-rule="evenodd" clip-rule="evenodd" d="M244.056 29.0973H255.954C256.279 29.0973 256.541 28.9012 256.738 28.6398C256.868 28.0513 257 27.3322 257 26.5478C257 22.1022 253.861 17.5913 248.435 17.5913C243.271 17.5913 239.151 21.6445 239.151 27.2669C239.151 32.8238 243.205 36.9425 248.435 36.9425C250.396 36.9425 253.076 36.2888 255.235 34.2621C255.496 34.0006 255.496 33.6083 255.235 33.3468L252.946 31.0587C252.685 30.8625 252.357 30.7971 252.096 30.9932C250.658 32.1047 249.35 32.3661 248.435 32.3661C246.342 32.3661 244.643 31.124 243.924 29.2934C243.858 29.2281 243.924 29.0973 244.056 29.0973ZM252.031 25.4367H243.99C243.858 25.4367 243.794 25.3059 243.858 25.2406C244.577 23.3447 246.278 22.1026 248.303 22.1026C250.396 22.1026 251.704 23.4102 252.227 25.2406C252.227 25.3059 252.161 25.4367 252.031 25.4367Z" fill="white"/>
<path fill-rule="evenodd" clip-rule="evenodd" d="M12.1681 43.4001L36.6284 29.3074C42.0296 26.1412 42.0296 18.319 36.6284 15.2148L12.1681 1.12212C6.76696 -2.04406 0 1.86712 0 8.13742V22.3341H4.12611V5.94182L14.7803 29.2621L17.8596 14.6637L28.1442 22.2723L37.1972 18.5608L40.0916 20.2928C40.0916 20.2928 40.2764 20.7877 40.2764 21.6536C40.338 22.8289 40.2148 23.2619 40.2148 23.2619L36.9508 21.3444L27.7131 25.1177L19.3992 18.9937L15.6425 37.118L6.58951 17.3236V24.8084H0V36.3847C0 42.593 6.76696 46.5042 12.1681 43.4001Z" fill="white"/>
</svg>
